<svg xmlns="http://www.w3.org/2000/svg" version="1.1" xmlns:xlink="http://www.w3.org/1999/xlink" xmlns:svgjs="http://svgjs.dev/svgjs" width="1500" height="276" viewBox="0 0 1500 276"><g transform="matrix(1,0,0,1,-0.9090909090909918,0.27412388438173707)"><svg viewBox="0 0 396 73" data-background-color="#0c1d36" preserveAspectRatio="xMidYMid meet" height="276" width="1500" xmlns="http://www.w3.org/2000/svg" xmlns:xlink="http://www.w3.org/1999/xlink"><g id="tight-bounds" transform="matrix(1,0,0,1,0.2400000000000091,-0.07250378101400656)"><svg viewBox="0 0 395.52 73.145007562028" height="73.145007562028" width="395.52"><g><svg viewBox="0 0 526.1052763910599 97.29463597301503" height="73.145007562028" width="395.52"><g transform="matrix(1,0,0,1,130.58527639105992,13.446653741567204)"><svg viewBox="0 0 395.5199999999999 70.40132848988063" height="70.40132848988063" width="395.5199999999999"><g id="textblocktransform"><svg viewBox="0 0 395.5199999999999 70.40132848988063" height="70.40132848988063" width="395.5199999999999" id="textblock"><g><svg viewBox="0 0 395.5199999999999 70.40132848988063" height="70.40132848988063" width="395.5199999999999"><g transform="matrix(1,0,0,1,0,0)"><svg width="395.5199999999999" viewBox="3.05 -34.25 194.83999999999997 34.3" height="70.40132848988063" data-palette-color="#ecc94b"><g class="wordmark-text-0" data-fill-palette-color="primary" id="text-0"><path d="M21.45-22.4L21.45-22.4Q21.45-24.25 21.1-25.33 20.75-26.4 19.88-26.95 19-27.5 17.98-27.68 16.95-27.85 15.15-27.85L15.15-27.85 15.15-16.85Q16.55-16.85 17.63-17.1 18.7-17.35 19.6-17.95 20.5-18.55 20.98-19.68 21.45-20.8 21.45-22.4ZM15.15-10.3L15.15-7.5Q15.15-3.45 13.65-1.73 12.15 0 9.05 0L9.05 0Q5.95 0 4.5-1.58 3.05-3.15 3.05-7.15L3.05-7.15 3.05-28.25Q3.05-31.3 4.7-32.77 6.35-34.25 9.05-34.25L9.05-34.25 17.95-34.25Q21.2-34.25 23.95-33.38 26.7-32.5 28.73-30.93 30.75-29.35 31.88-26.98 33-24.6 33-21.7L33-21.7Q33-18.15 30.95-15.53 28.9-12.9 25.55-11.6 22.2-10.3 18-10.3L18-10.3 15.15-10.3ZM50-28.7L50-7.5Q50-3.6 48.55-1.8 47.1 0 44.15 0L44.15 0Q41.25 0 39.87-1.55 38.5-3.1 38.5-7.1L38.5-7.1 38.5-28.25Q38.5-34.25 44.15-34.25L44.15-34.25Q47.05-34.25 48.52-33.15 50-32.05 50-28.7L50-28.7ZM58.85-11.05L64.85-17 58-23.65Q55.95-25.85 55.95-27.85L55.95-27.85Q55.95-30.3 58.05-32.2L58.05-32.2Q60.35-34.25 62.15-34.25L62.15-34.25Q64.35-34.25 66-32.3L66-32.3 72.4-24.1 77.7-31.2Q80.15-34.2 83.2-34.2L83.2-34.2Q85.3-34.2 87.09-32.45L87.09-32.45Q89.15-30.35 89.15-28.45L89.15-28.45Q89.15-26.25 86.2-23.2L86.2-23.2 80.3-17.6 87.05-10.55Q89.15-8.2 89.15-6.4L89.15-6.4Q89.15-3.9 87.05-2.05L87.05-2.05Q84.75 0.05 82.95 0.05L82.95 0.05Q80.7 0.05 79.1-1.9L79.1-1.9 72.65-10.3 67.35-3.05Q65 0 61.9 0L61.9 0Q59.85 0 58-1.85L58-1.85Q55.95-3.9 55.95-5.8L55.95-5.8Q55.95-7.85 58.85-11.05L58.85-11.05ZM112.79-22.4L112.79-22.4Q112.79-24.25 112.44-25.33 112.09-26.4 111.22-26.95 110.34-27.5 109.32-27.68 108.29-27.85 106.49-27.85L106.49-27.85 106.49-16.85Q107.89-16.85 108.97-17.1 110.04-17.35 110.94-17.95 111.84-18.55 112.32-19.68 112.79-20.8 112.79-22.4ZM106.49-10.3L106.49-7.5Q106.49-3.45 104.99-1.73 103.49 0 100.39 0L100.39 0Q97.29 0 95.84-1.58 94.39-3.15 94.39-7.15L94.39-7.15 94.39-28.25Q94.39-31.3 96.04-32.77 97.69-34.25 100.39-34.25L100.39-34.25 109.29-34.25Q112.54-34.25 115.29-33.38 118.04-32.5 120.07-30.93 122.09-29.35 123.22-26.98 124.34-24.6 124.34-21.7L124.34-21.7Q124.34-18.15 122.29-15.53 120.24-12.9 116.89-11.6 113.54-10.3 109.34-10.3L109.34-10.3 106.49-10.3ZM144.24-26.1L144.24-26.1Q142.09-26.1 141.06-24.85 140.04-23.6 140.04-20.4L140.04-20.4 140.04-14.5 148.34-14.5 148.34-20.5Q148.34-22.6 147.84-23.88 147.34-25.15 146.47-25.63 145.59-26.1 144.24-26.1ZM148.34-4.95L148.34-7.6 140.04-7.6 140.04-4.95Q140.04-2.4 138.69-1.2 137.34 0 134.04 0L134.04 0Q132.64 0 131.74-0.4 130.84-0.8 130.16-1.75 129.49-2.7 129.16-4.53 128.84-6.35 128.66-8.93 128.49-11.5 128.49-15.45L128.49-15.45Q128.49-18.9 129.22-21.78 129.94-24.65 131.16-26.65 132.39-28.65 133.94-30.18 135.49-31.7 137.31-32.55 139.14-33.4 140.87-33.83 142.59-34.25 144.34-34.25L144.34-34.25Q146.44-34.25 148.49-33.68 150.54-33.1 152.64-31.7 154.74-30.3 156.31-28.23 157.89-26.15 158.89-22.85 159.89-19.55 159.89-15.45L159.89-15.45Q159.89-8.85 159.42-5.68 158.94-2.5 157.81-1.25 156.69 0 154.34 0L154.34 0Q151.04 0 149.69-1.2 148.34-2.4 148.34-4.95L148.34-4.95ZM167.59-11.05L173.59-17 166.74-23.65Q164.69-25.85 164.69-27.85L164.69-27.85Q164.69-30.3 166.79-32.2L166.79-32.2Q169.09-34.25 170.89-34.25L170.89-34.25Q173.09-34.25 174.74-32.3L174.74-32.3 181.14-24.1 186.44-31.2Q188.89-34.2 191.94-34.2L191.94-34.2Q194.04-34.2 195.84-32.45L195.84-32.45Q197.89-30.35 197.89-28.45L197.89-28.45Q197.89-26.25 194.94-23.2L194.94-23.2 189.04-17.6 195.79-10.55Q197.89-8.2 197.89-6.4L197.89-6.4Q197.89-3.9 195.79-2.05L195.79-2.05Q193.49 0.05 191.69 0.05L191.69 0.05Q189.44 0.05 187.84-1.9L187.84-1.9 181.39-10.3 176.09-3.05Q173.74 0 170.64 0L170.64 0Q168.59 0 166.74-1.85L166.74-1.85Q164.69-3.9 164.69-5.8L164.69-5.8Q164.69-7.85 167.59-11.05L167.59-11.05Z" fill="#ecc94b" data-fill-palette-color="primary"></path></g></svg></g></svg></g></svg></g></svg></g><g><svg viewBox="0 0 113.96521236648287 97.29463597301503" height="97.29463597301503" width="113.96521236648287"><g><svg xmlns="http://www.w3.org/2000/svg" xmlns:xlink="http://www.w3.org/1999/xlink" version="1.1" x="0" y="0" viewBox="0 1.882936507936508 50.39 43.0190634920635" enable-background="new 0 0 50.4 50.4" xml:space="preserve" width="113.96521236648287" height="97.29463597301503" class="icon-icon-0" data-fill-palette-color="accent" id="icon-0"><path d="M23.94 38.405c0.08 0.38 0.07 0.775-0.037 1.155-0.095 0.354-0.288 0.687-0.55 0.967-0.888 0.899-2.341 0.92-3.248 0.045l-4.5-4.389-0.866 1.06 4.501 4.395c1.229 1.194 3.899 1.116 5.105-0.108 0.42-0.427 1.01-1.396 1.136-1.959l11.861 0.01c1.278 0 2.541 1.192 2.541 2.462 0 1.287-0.836 2.859-2.594 2.859H18.284c-0.822-0.03-1.847-0.45-2.565-1.055l-9.927-7.453-5.781 0.025L0 27.766h0.05v-0.078h11.532c0 0 1.208 0.027 2.04 0.51 0.766 0.447 1.447 1.103 1.447 1.103l8.231 7.993C23.613 37.595 23.833 37.977 23.94 38.405z" fill="#f9f9f9" data-fill-palette-color="accent"></path><path d="M46.037 25.761c0.079-0.149 0.18-0.29 0.239-0.455 0.391-1.05 0.34-2.199-0.145-3.236-0.436-0.927-1.2-1.692-2.135-2.154 0.105-1.902-1.114-3.717-3.099-4.411-0.925-0.32-1.93-0.35-2.854-0.105-0.552-0.762-1.343-1.352-2.279-1.677-0.521-0.183-1.061-0.272-1.608-0.272-1.799 0-3.419 1.01-4.129 2.552-1.864 0.042-3.519 1.165-4.137 2.816-0.173 0.463-0.259 0.945-0.262 1.428-1.682 0.189-3.134 1.262-3.704 2.791-0.335 0.893-0.33 1.845-0.045 2.725H17.28l9.749 11.207h14.034l9.327-11.207H46.037zM23.976 23.802c0.37-0.989 1.571-1.584 2.738-1.339l1.977 0.415-0.733-1.883c-0.181-0.467-0.188-0.952-0.016-1.407 0.359-0.97 1.496-1.575 2.668-1.354l1.064 0.19 0.203-1.064c0.022-0.107 0.048-0.215 0.087-0.317 0.408-1.093 1.833-1.688 3.083-1.25 0.695 0.24 1.238 0.742 1.485 1.375l0.455 1.149 1.087-0.59c0.622-0.335 1.403-0.397 2.104-0.152 1.215 0.42 1.895 1.614 1.539 2.714l-0.359 1.109 1.135 0.285c0.069 0.018 0.14 0.035 0.22 0.065 0.645 0.222 1.164 0.68 1.439 1.255 0.229 0.494 0.255 1.044 0.069 1.539-0.209 0.567-0.68 1-1.299 1.22H24.317C23.87 25.186 23.732 24.457 23.976 23.802z" fill="#f9f9f9" data-fill-palette-color="accent"></path><polygon points="29.636,13.455 28.45,13.455 28.45,6.617 29.636,6.617 29.636,13.455 " fill="#f9f9f9" data-fill-palette-color="accent"></polygon><polygon points="33.155,10.976 31.969,10.976 31.969,1.898 33.155,1.898 33.155,10.976 " fill="#f9f9f9" data-fill-palette-color="accent"></polygon><polygon points="36.675,11.615 35.488,11.615 35.488,5.817 36.675,5.817 36.675,11.615 " fill="#f9f9f9" data-fill-palette-color="accent"></polygon></svg></g></svg></g></svg></g><defs></defs></svg><rect width="395.52" height="73.145007562028" fill="none" stroke="none" visibility="hidden"></rect></g></svg></g></svg>